<svg width="1197" height="474" viewBox="0 0 1197 474" xmlns="http://www.w3.org/2000/svg"><title>How Tixsel Works</title><g fill="none" fill-rule="evenodd"><path fill="#F8F8F8" d="M-3 0h1200v474H-3z"/><g transform="translate(772.724 146)"><ellipse stroke="#008BF8" stroke-width="2" cx="155.74" cy="61" rx="60.899" ry="61"/><path d="M190.145 51.234l-4.902 19.58a3.503 3.503 0 0 1-3.061 2.873h-32.257a3.489 3.489 0 0 1-3.076-2.874l-10.494-31.05a.755.755 0 0 0-.316-.575h-4.7c-1.917 0-1.917-2.874 0-2.874h4.7a3.273 3.273 0 0 1 3.076 2.615l10.494 31.05c.06.309.205.6.416.834h32.042c.19-.194.324-.439.388-.704L187.4 50.53a1.446 1.446 0 0 0-.345-1.294h-15.467c-1.916 0-1.916-2.875 0-2.875h15.495a2.87 2.87 0 0 1 2.315 1.208 4.316 4.316 0 0 1 .747 3.665zm-28.62 30.36a5.032 5.032 0 1 1-7.116 7.113 5.032 5.032 0 0 1 5.642-10.67 5.027 5.027 0 0 1 1.474 3.557zm-2.875 0c0-1.923-2.32-2.883-3.68-1.524-1.358 1.36-.399 3.68 1.524 3.68 1.19 0 2.156-.967 2.156-2.156zm23 0a5.032 5.032 0 1 1-7.116 7.113 5.032 5.032 0 0 1 5.642-10.67 5.027 5.027 0 0 1 1.474 3.557zm-2.875 0c0-1.923-2.321-2.883-3.68-1.524-1.359 1.36-.4 3.68 1.524 3.68 1.19 0 2.156-.967 2.156-2.156zm-38.812-23.718c0-.794-.644-1.438-1.437-1.438h-15.813c-1.916 0-1.916 2.875 0 2.875h15.813c.793 0 1.437-.644 1.437-1.437zm1.438 5.75c0-.795-.644-1.439-1.438-1.439h-11.5c-1.916 0-1.916 2.876 0 2.876h11.5c.794 0 1.438-.644 1.438-1.438zm0 4.311h-7.188c-1.916 0-1.916 2.876 0 2.876h7.188c1.915 0 1.915-2.876 0-2.876z" fill="#008BF8"/><text font-family="HelveticaNeue, Helvetica Neue" font-size="28" fill="#008BF8"><tspan x="97.162" y="176">Purchase</tspan></text><text font-family="HelveticaNeue, Helvetica Neue" font-size="16" letter-spacing="-.343" fill="#3F4051"><tspan x="23.772" y="218">Quick and easy checkout allows you </tspan> <tspan x="24.555" y="238">to purchase your tickets and reserve </tspan> <tspan x="30.085" y="258">your hotel accommodations in one </tspan> <tspan x="40.809" y="278">place and with just a few clicks.</tspan></text></g><g transform="translate(439.263 146)"><ellipse stroke="#008BF8" stroke-width="2" cx="154.742" cy="61" rx="60.899" ry="61"/><text font-family="HelveticaNeue, Helvetica Neue" font-size="28" fill="#008BF8"><tspan x="55.148" y="176">Build a package</tspan></text><text font-family="HelveticaNeue, Helvetica Neue" font-size="16" letter-spacing="-.343" fill="#3F4051"><tspan x="26.435" y="218">Start by selecting the type of package </tspan> <tspan x="21.146" y="238">you are looking for and then select your </tspan> <tspan x="23.494" y="258">tickets and hotel from the personalized </tspan> <tspan x="108.016" y="278">list of options.</tspan></text><path d="M133.096 35.5a.751.751 0 0 0-.468.305l-9.75 13.5a.753.753 0 0 0-.07.187l-.024.024v.046a.773.773 0 0 0-.047.188v34.5c0 .414.336.75.75.75h63a.75.75 0 0 0 .75-.75v-34.5a.752.752 0 0 0-.14-.445l-9.75-13.5a.763.763 0 0 0-.61-.305h-43.64zm.891 1.5h41.977v12h-41.977V37zm43.477 1.547L185.01 49h-7.546V38.547zm-44.977.047V49h-7.523l7.523-10.406zm-8.25 11.906h61.5v33h-61.5v-33zm27 3c-4.96 0-9 4.039-9 9s4.04 9 9 9a8.924 8.924 0 0 0 5.391-1.805l2.156 2.18-.586.586a.75.75 0 0 0 0 1.055l6.75 6.75a.75.75 0 0 0 1.055 0l2.25-2.25a.75.75 0 0 0 0-1.055l-6.75-6.75a.756.756 0 0 0-.68-.211.726.726 0 0 0-.375.211l-.586.586-2.109-2.109a9.002 9.002 0 0 0 2.484-6.188c0-4.961-4.039-9-9-9zm0 1.5c4.152 0 7.5 3.348 7.5 7.5s-3.348 7.5-7.5 7.5a7.487 7.487 0 0 1-7.5-7.5c0-4.152 3.348-7.5 7.5-7.5zm9.75 16.781l5.672 5.719-1.172 1.172L159.768 73l1.22-1.219z" fill="#008BF8"/></g><g transform="translate(97.815 146)"><ellipse stroke="#008BF8" stroke-width="2" cx="155.74" cy="61" rx="60.899" ry="61"/><text font-family="HelveticaNeue, Helvetica Neue" font-size="28" fill="#008BF8"><tspan x="46.09" y="176">Search for events</tspan></text><text font-family="HelveticaNeue, Helvetica Neue" font-size="16" letter-spacing="-.343" fill="#3F4051"><tspan x="20.974" y="218">Search for the event you want to attend </tspan> <tspan x="23.864" y="238">and adjust the check-in and check-out </tspan> <tspan x="96.744" y="258">dates as needed.</tspan></text><g fill="#008BF8"><path d="M136.133 40.041a3.909 3.909 0 0 0-3.907-3.908 3.908 3.908 0 0 0 .012 7.815 3.898 3.898 0 0 0 3.895-3.907zm-5.848 0c0-1.074.883-1.954 1.953-1.954a1.955 1.955 0 0 1 0 3.908c-1.07 0-1.953-.87-1.953-1.954zm29.286 16.597c-5.922 0-10.735 4.814-10.735 10.735 0 .537.442.979.978.979a.983.983 0 0 0 .979-.979c0-4.848 3.942-8.781 8.781-8.781a.983.983 0 0 0 .979-.979.99.99 0 0 0-.982-.975z"/><path d="M183.517 84.435l-8.257-8.267-1.382 1.382-1.395-1.395a15.557 15.557 0 0 0 2.703-8.768c0-4.124-1.62-7.877-4.241-10.663-1.859-10.805-11.104-18.62-22.112-18.62a22.33 22.33 0 0 0-8.795 1.785c-.092-4.232-3.558-7.65-7.812-7.65-4.298 0-7.803 3.504-7.803 7.802 0 2.466 2.43 6.945 4.432 10.246a22.513 22.513 0 0 0-2.478 10.26c0 12.377 10.068 22.458 22.459 22.458 1.989 0 3.977-.26 5.884-.788 1.525.502 3.158.788 4.848.788 3.253 0 6.265-1.001 8.768-2.704l1.395 1.395-1.381 1.382 8.266 8.267a4.856 4.856 0 0 0 3.457 1.43 4.884 4.884 0 0 0 3.457-1.43 4.806 4.806 0 0 0 1.43-3.457 4.914 4.914 0 0 0-1.443-3.453zm-33.719-3.492v-1.382c.407.32.833.632 1.265.918-.407.2-.833.369-1.265.464zm-1.95 0c-2.644-.585-5.005-3.491-6.625-7.695h3.86a15.998 15.998 0 0 0 2.752 4.445v3.25h.013zm-7.27-9.661c-.87-2.885-1.404-6.222-1.49-9.757h6.005a15.513 15.513 0 0 0-1.157 5.862c0 1.346.192 2.655.512 3.907h-3.87v-.012zm-12.2-9.76h8.744c.07 3.551.56 6.85 1.37 9.756h-7.099a20.302 20.302 0 0 1-3.015-9.756zm17.681-1.952h-6.97c.07-3.145.501-6.135 1.204-8.78h7.564v6.303a15.237 15.237 0 0 0-1.798 2.477zm-6.446-17.337c1.13-.571 2.3-1.023 3.5-1.37-1.785 1.882-3.288 4.637-4.336 7.982h-2.313c1.268-2.192 2.53-4.62 3.149-6.612zm10.185-2.061c2.812.606 5.373 3.838 6.993 8.66h-6.993v-8.66zm-1.95-.01v8.673h-6.971c1.608-4.73 4.133-8.053 6.97-8.673zm1.95 10.628h7.578c.095.355.19.727.273 1.108a15.545 15.545 0 0 0-7.85 3.31V50.79zm9.817.975a21.178 21.178 0 0 0-.225-.979h7.47a21.148 21.148 0 0 1 1.55 3.743 15.454 15.454 0 0 0-8.795-2.764zm6.066-2.93h-6.828c-1.061-3.405-2.56-6.135-4.337-7.993a20.388 20.388 0 0 1 11.165 7.993zm-33.455-14.643c3.227 0 5.862 2.634 5.862 5.862 0 2.49-3.692 8.638-5.862 11.914-2.158-3.288-5.85-9.423-5.85-11.927a5.853 5.853 0 0 1 5.85-5.85zm-.798 20.076l.798 1.169.797-1.169a84.503 84.503 0 0 0 2.262-3.478h2.958c-.655 2.668-1.048 5.635-1.108 8.78h-8.782c.12-2.525.715-5.016 1.728-7.313a79.41 79.41 0 0 0 1.347 2.011zm1.335 18.967h6.35c1.024 2.895 2.383 5.29 3.991 6.983a20.457 20.457 0 0 1-10.341-6.983zm13.14-5.848c0-7.543 6.135-13.665 13.665-13.665 7.53 0 13.668 6.122 13.668 13.665 0 7.538-6.135 13.664-13.665 13.664-7.53 0-13.668-6.135-13.668-13.664zm25.21 12.923l-1.226-1.225c.49-.43.953-.893 1.382-1.383l1.226 1.227-1.382 1.381zm11.022 9.64c-1.109 1.109-3.037 1.109-4.147 0l-6.887-6.888 4.146-4.146 6.888 6.888c.546.546.858 1.286.858 2.071 0 .788-.299 1.528-.858 2.075z"/><path d="M180.305 89.505l-1.382-1.382 1.382-1.382 1.382 1.382zm-4.137-4.149l1.382-1.382 1.382 1.382-1.382 1.382zm-2.764-2.761l1.382-1.382 1.382 1.382-1.382 1.382z"/></g></g><text font-family="HelveticaNeue, Helvetica Neue" font-size="32" letter-spacing=".302" fill="#000" transform="translate(-3)"><tspan x="468.219" y="78">How Tixsel Works</tspan></text></g></svg>