<svg style="background-color:#fafafa" height="476" viewBox="0 0 1200 476" xmlns="http://www.w3.org/2000/svg"><title>How Tixsel Works</title><g fill="none" fill-rule="evenodd"><path fill="#FAFAFA" d="M0 0h1200v476H0z"/><g transform="translate(839.724 154)"><ellipse stroke="#008BF8" stroke-width="2" cx="153.899" cy="61" rx="60.899" ry="61"/><text font-size="26" fill="#008BF8"><tspan x="103.398" y="179">Purchase</tspan></text><text font-size="14" letter-spacing="-.3" fill="#3F4051"><tspan x="38.867" y="218">Quick and easy checkout allows you to </tspan> <tspan x="22.83" y="240">purchase your tickets and reserve your hotel </tspan> <tspan x="21.525" y="262">accommodations in one place and with just a </tspan> <tspan x="122.856" y="284">few clicks.</tspan></text><path d="M194.623 49.738l-5.967 23.836a4.264 4.264 0 0 1-3.727 3.499h-39.27a4.247 4.247 0 0 1-3.744-3.5L129.14 35.775a.92.92 0 0 0-.385-.7h-5.722c-2.333 0-2.333-3.5 0-3.5h5.722a3.985 3.985 0 0 1 3.745 3.184l12.775 37.8c.073.376.25.731.507 1.016h39.007c.232-.236.394-.534.472-.858l6.02-23.834a1.76 1.76 0 0 0-.42-1.576h-18.829c-2.333 0-2.333-3.5 0-3.5h18.864a3.493 3.493 0 0 1 2.818 1.47 5.254 5.254 0 0 1 .91 4.462zm-34.841 36.96a6.125 6.125 0 0 1-10.456 4.331 6.129 6.129 0 0 1-1.327-6.676 6.122 6.122 0 0 1 5.658-3.78 6.123 6.123 0 0 1 6.125 6.125zm-3.5 0c0-2.34-2.826-3.509-4.48-1.855-1.654 1.654-.486 4.48 1.855 4.48a2.627 2.627 0 0 0 2.625-2.625zm28 0a6.125 6.125 0 0 1-10.456 4.331 6.129 6.129 0 0 1-1.327-6.676 6.122 6.122 0 0 1 5.657-3.78 6.123 6.123 0 0 1 6.125 6.125zm-3.5 0c0-2.34-2.826-3.509-4.48-1.855-1.655 1.654-.487 4.48 1.854 4.48a2.627 2.627 0 0 0 2.625-2.625zm-47.25-28.875a1.75 1.75 0 0 0-1.75-1.75h-19.25c-2.332 0-2.332 3.501 0 3.501h19.25a1.75 1.75 0 0 0 1.75-1.75zm1.75 7a1.75 1.75 0 0 0-1.75-1.75h-14c-2.332 0-2.332 3.501 0 3.501h14a1.75 1.75 0 0 0 1.75-1.75zm0 5.25h-8.75c-2.332 0-2.332 3.5 0 3.5h8.75c2.332 0 2.332-3.5 0-3.5z" fill="#008BF8"/></g><g transform="translate(442.263 154)"><ellipse stroke="#008BF8" stroke-width="2" cx="157.899" cy="61" rx="60.899" ry="61"/><text font-size="26" fill="#008BF8"><tspan x="64.667" y="179">Build a package</tspan></text><text font-size="14" letter-spacing="-.3" fill="#3F4051"><tspan x="24.971" y="218">Start by selecting the type of package you are </tspan> <tspan x="33.085" y="240">looking for and then select your tickets and </tspan> <tspan x="37.078" y="262">hotel from the personalized list of options.</tspan></text><path d="M133.952 34.88a.804.804 0 0 0-.5.326l-10.43 14.442a.805.805 0 0 0-.077.2l-.024.026v.05a.827.827 0 0 0-.05.2v36.907c0 .443.359.802.802.802h67.395a.802.802 0 0 0 .802-.802V50.124a.805.805 0 0 0-.15-.476l-10.43-14.442a.817.817 0 0 0-.652-.326h-46.686zm.953 1.605h44.906v12.837h-44.906V36.485zm46.51 1.655l8.073 11.182h-8.072V38.14zm-48.114.05v11.132h-8.048L133.3 38.19zm-8.826 12.737h65.79v35.302h-65.79V50.927zm28.884 3.209c-5.307 0-9.628 4.32-9.628 9.628 0 5.307 4.32 9.628 9.628 9.628a9.547 9.547 0 0 0 5.767-1.931l2.306 2.332-.627.627a.803.803 0 0 0 0 1.128l7.221 7.221c.314.31.816.31 1.129 0l2.407-2.407a.803.803 0 0 0 0-1.128l-7.221-7.221a.809.809 0 0 0-.727-.226.777.777 0 0 0-.402.226l-.626.627-2.257-2.257c1.634-1.726 2.658-4.061 2.658-6.62 0-5.306-4.321-9.627-9.628-9.627zm0 1.604a8.01 8.01 0 0 1 8.023 8.024 8.01 8.01 0 0 1-8.023 8.023 8.01 8.01 0 0 1-8.023-8.023 8.01 8.01 0 0 1 8.023-8.024zm10.43 17.952l6.068 6.118-1.254 1.254-6.118-6.068 1.304-1.304z" fill="#008BF8"/></g><g transform="translate(36.815 154)"><ellipse stroke="#008BF8" stroke-width="2" cx="150.9" cy="61.002" rx="60.9" ry="61.002"/><text font-size="26" fill="#008BF8"><tspan x="56.1" y="179">Search for events</tspan></text><text font-size="14" letter-spacing="-.3" fill="#3F4051"><tspan x="25.626" y="218">Search for the event you want to attend and </tspan> <tspan x="29.508" y="240">adjust the check-in and check-out dates as </tspan> <tspan x="129.346" y="262">needed.</tspan></text></g><text font-size="38" letter-spacing="1" fill="#0A2463"><tspan x="435.986" y="103">How Tixsel Work</tspan> <tspan x="729.526" y="103">s?</tspan></text><g fill="#008BF8"><path d="M168.47 191.33a4.1 4.1 0 0 0-4.1-4.1 4.1 4.1 0 0 0 .013 8.2 4.09 4.09 0 0 0 4.087-4.1zm-6.137 0a2.06 2.06 0 0 1 2.05-2.05 2.051 2.051 0 0 1 0 4.1 2.053 2.053 0 0 1-2.05-2.05zm30.727 17.413c-6.213 0-11.263 5.05-11.263 11.264a1.03 1.03 0 0 0 1.027 1.026 1.03 1.03 0 0 0 1.026-1.026c0-5.087 4.136-9.214 9.214-9.214a1.03 1.03 0 0 0 1.026-1.026 1.038 1.038 0 0 0-1.03-1.024z"/><path d="M218.183 237.907l-8.663-8.673-1.45 1.45-1.463-1.464a16.322 16.322 0 0 0 2.836-9.2c0-4.326-1.7-8.264-4.45-11.187-1.95-11.337-11.65-19.536-23.2-19.536-3.227 0-6.313.636-9.226 1.873-.097-4.44-3.734-8.027-8.197-8.027-4.51 0-8.187 3.677-8.187 8.187 0 2.587 2.55 7.287 4.65 10.75a23.62 23.62 0 0 0-2.6 10.764c0 12.986 10.563 23.563 23.564 23.563a23.18 23.18 0 0 0 6.173-.827c1.6.526 3.314.827 5.087.827a16.29 16.29 0 0 0 9.2-2.837l1.463 1.464-1.45 1.45 8.673 8.673c.964.963 2.25 1.5 3.627 1.5 1.373 0 2.65-.537 3.627-1.5a5.043 5.043 0 0 0 1.5-3.627 5.156 5.156 0 0 0-1.514-3.623zm-35.376-3.663v-1.45c.426.336.873.663 1.326.962a5.884 5.884 0 0 1-1.326.488zm-2.047 0c-2.773-.614-5.25-3.664-6.95-8.074h4.05a16.785 16.785 0 0 0 2.887 4.664v3.41h.013zm-7.627-10.137c-.913-3.027-1.473-6.527-1.563-10.237h6.3a16.276 16.276 0 0 0-1.213 6.15c0 1.413.2 2.786.536 4.1h-4.06v-.013zm-12.8-10.24h9.173c.074 3.726.588 7.187 1.437 10.236h-7.447a21.301 21.301 0 0 1-3.163-10.236zm18.55-2.047h-7.313c.073-3.3.526-6.437 1.264-9.213h7.936v6.613c-.71.8-1.35 1.673-1.886 2.6zm-6.763-18.19a21.048 21.048 0 0 1 3.673-1.437c-1.873 1.974-3.45 4.864-4.55 8.374h-2.426c1.33-2.3 2.653-4.847 3.303-6.937zm10.687-2.163c2.95.636 5.637 4.027 7.336 9.086h-7.336v-9.086zm-2.047-.01v9.1h-7.314c1.687-4.964 4.337-8.45 7.314-9.1zm2.047 11.15h7.95c.1.373.2.763.287 1.163a16.309 16.309 0 0 0-8.237 3.473v-4.636zm10.3 1.023a22.51 22.51 0 0 0-.237-1.026h7.837c.663 1.236 1.2 2.55 1.626 3.926a16.214 16.214 0 0 0-9.227-2.9zm6.363-3.074h-7.163c-1.114-3.572-2.687-6.436-4.55-8.386a21.391 21.391 0 0 1 11.713 8.386zm-35.1-15.363c3.386 0 6.15 2.764 6.15 6.15 0 2.614-3.873 9.063-6.15 12.5-2.264-3.45-6.137-9.886-6.137-12.513a6.14 6.14 0 0 1 6.137-6.137zm-.837 21.064l.837 1.226.837-1.226a88.66 88.66 0 0 0 2.373-3.65h3.103c-.687 2.8-1.1 5.913-1.163 9.213h-9.213a21.61 21.61 0 0 1 1.813-7.674 83.316 83.316 0 0 0 1.413 2.11zm1.4 19.9h6.663c1.074 3.036 2.5 5.55 4.188 7.326a21.463 21.463 0 0 1-10.85-7.327zm13.787-6.137c0-7.914 6.437-14.337 14.337-14.337 7.9 0 14.34 6.423 14.34 14.337 0 7.91-6.437 14.337-14.337 14.337-7.9 0-14.34-6.437-14.34-14.337zm26.45 13.56l-1.287-1.286c.514-.45 1-.937 1.45-1.451l1.287 1.287-1.45 1.45zm11.563 10.113c-1.163 1.163-3.186 1.163-4.35 0l-7.226-7.227 4.35-4.349 7.226 7.226c.574.573.9 1.35.9 2.173 0 .827-.313 1.604-.9 2.177z"/><path d="M214.813 243.227l-1.45-1.45 1.45-1.45 1.45 1.45zm-4.34-4.353l1.45-1.451 1.45 1.45-1.45 1.45zm-2.899-2.897l1.45-1.45 1.45 1.45-1.45 1.45z"/></g></g></svg>