<svg width="1024" height="428" viewBox="0 40 1024 428" xmlns="http://www.w3.org/2000/svg" xmlns:xlink="http://www.w3.org/1999/xlink"><title>Desktop</title><defs><path id="a" d="M0 0h1024v527H0z"/><mask id="b" x="0" y="0" width="1024" height="527" fill="#fff"><use xlink:href="#a"/></mask></defs><g fill="none" fill-rule="evenodd"><use stroke="#fff" mask="url(#b)" stroke-width="2" fill="#FFF" xlink:href="#a"/><g transform="translate(637 189)"><text font-family="HelveticaNeue-Thin, Helvetica Neue" font-size="12" font-weight="300" letter-spacing="-.083" fill="#7C7979"><tspan x="16.485" y="190">Pay for the package you selected.</tspan></text><text font-family="HelveticaNeue, Helvetica Neue" font-size="22" letter-spacing="-.151" fill="#E91E63"><tspan x="52.629" y="167">Checkout</tspan></text><circle stroke="#979797" fill="#D8D8D8" cx="99.5" cy="56.5" r="56.5"/></g><g transform="translate(412 189)"><text font-family="HelveticaNeue-Thin, Helvetica Neue" font-size="12" font-weight="300" letter-spacing="-.083" fill="#7C7979"><tspan x="26.137" y="190">Choose a package that works </tspan> <tspan x="69.306" y="205">best for you.</tspan></text><text font-family="HelveticaNeue, Helvetica Neue" font-size="22" letter-spacing="-.151" fill="#E91E63"><tspan x="61.861" y="167">Choose</tspan></text><circle stroke="#979797" fill="#D8D8D8" cx="99.5" cy="56.5" r="56.5"/></g><g transform="translate(186 189)"><text font-family="HelveticaNeue-Thin, Helvetica Neue" font-size="12" font-weight="300" letter-spacing="-.083" fill="#7C7979"><tspan x="33.145" y="190">Search for a concert, event </tspan> <tspan x="77.992" y="205">or game.</tspan></text><text font-family="HelveticaNeue, Helvetica Neue" font-size="22" letter-spacing="-.151" fill="#E91E63"><tspan x="66.524" y="167">Search</tspan></text><circle stroke="#979797" fill="#D8D8D8" cx="100.5" cy="56.5" r="56.5"/></g><g fill="#000"><path d="M709.398 245.949h19.5v-3.75h-19.5zm3.75-5.926h19.5v-3.75h-19.5zm12.829 18.454c-3 0-5.477 2.476-5.477 5.476s2.477 5.477 5.477 5.477c3 0 5.476-2.477 5.476-5.477 0-3-2.476-5.476-5.476-5.476zm0 7.273c-.977 0-1.727-.75-1.727-1.727 0-.976.75-1.726 1.727-1.726.976 0 1.726.75 1.726 1.726 0 .973-.754 1.727-1.726 1.727zm13.421-7.273c-3 0-5.476 2.476-5.476 5.476s2.476 5.477 5.476 5.477 5.477-2.477 5.477-5.477c0-3-2.477-5.476-5.477-5.476zm0 7.273c-.976 0-1.726-.75-1.726-1.727 0-.976.75-1.726 1.726-1.726.977 0 1.727.75 1.727 1.726 0 .973-.824 1.727-1.727 1.727z"/><path d="M763.324 232.676a1.896 1.896 0 0 0-1.726-1.125h-34.575l3-7.426c.227-.602.149-1.199-.148-1.727-.375-.523-.898-.824-1.574-.824h-6.375v3.75h3.601l-3 7.426c-.074.227-.148.449-.148.676 0 1.051.824 1.875 1.875 1.875h33.074l-10.805 11.625H724.25c-.824 0-1.5.523-1.727 1.199l-2.324 6a1.784 1.784 0 0 0 .227 1.727c.375.523.898.824 1.574.824h22.352v-3.75h-19.727l.898-2.25h21.899c.523 0 1.051-.227 1.351-.602l14.25-15.375a1.956 1.956 0 0 0 .301-2.023z"/></g><g fill="#000"><path d="M494.58 218c3.615 0 6.545 2.87 6.545 6.414 0 3.543-2.93 6.413-6.545 6.413-3.618 0-6.548-2.87-6.548-6.413 0-3.544 2.933-6.414 6.548-6.414zm33.04 0c3.615 0 6.546 2.87 6.546 6.414 0 3.543-2.93 6.413-6.546 6.413-3.615 0-6.545-2.87-6.545-6.413 0-3.544 2.93-6.414 6.545-6.414zm-21.072 6.588h.003c-.003-.06-.009-.117-.009-.174 0-2.415 2.003-4.372 4.475-4.372 2.472 0 4.474 1.957 4.474 4.372l.215 4.483a6.316 6.316 0 0 0 1.874-4.483c0-3.544-2.937-6.414-6.563-6.414-3.624 0-6.562 2.87-6.562 6.414 0 1.761.727 3.357 1.904 4.517l.19-4.343z"/><path d="M507.33 244.033l-10.694 4.475a5.828 5.828 0 0 0-3.551 5.975l3.182 15.034a3.969 3.969 0 0 0 3.767 3.14l11.667.34a5.53 5.53 0 0 0 4.95-2.795l10.932-19.285a2.424 2.424 0 0 0-.865-3.277 2.441 2.441 0 0 0-2.988.378l-5.262 5.33c-1.306 1.325-3.566.45-3.638-1.406l-1.06-27.585a2.722 2.722 0 0 0-2.721-2.616 2.719 2.719 0 0 0-2.722 2.581l-.997 19.711z"/></g><path d="M309.277 269.123l-5.151-5.15a9.84 9.84 0 0 0 2.174-6.173c0-5.46-4.44-9.9-9.9-9.9s-9.9 4.44-9.9 9.9 4.44 9.9 9.9 9.9a9.855 9.855 0 0 0 6.173-2.171l5.15 5.15a1.094 1.094 0 0 0 1.554-.002c.43-.427.43-1.127 0-1.554zM296.4 265.5c-4.245 0-7.7-3.455-7.7-7.7s3.455-7.7 7.7-7.7 7.7 3.455 7.7 7.7-3.455 7.7-7.7 7.7zM270 231.4h-1.1a1.1 1.1 0 0 0 0 2.2h1.1a1.1 1.1 0 0 0 0-2.2zm4.4 0h-1.1a1.1 1.1 0 0 0 0 2.2h1.1a1.1 1.1 0 0 0 0-2.2zm-8.8 0h-1.1a1.1 1.1 0 0 0 0 2.2h1.1a1.1 1.1 0 0 0 0-2.2zm17.6 30.8h-19.8a2.2 2.2 0 0 1-2.2-2.2v-22h44v9.9a1.1 1.1 0 0 0 2.2 0v-16.5c0-2.427-1.973-4.4-4.4-4.4h-39.6a4.404 4.404 0 0 0-4.4 4.4V260c0 2.427 1.973 4.4 4.4 4.4h19.8a1.1 1.1 0 0 0 0-2.2zm-22-30.8a2.2 2.2 0 0 1 2.2-2.2H303a2.2 2.2 0 0 1 2.2 2.2v4.4h-44v-4.4z" fill="#000"/><text font-family="HelveticaNeue, Helvetica Neue" font-size="36" letter-spacing="-.248" fill="#E91E63"><tspan x="379.501" y="105">How Tixsel Works</tspan></text></g></svg>