<svg width="48" height="63" viewBox="0 0 48 63" xmlns="http://www.w3.org/2000/svg"><title>Slice 4</title><g transform="translate(-18 -15)" fill="none" fill-rule="evenodd"><path d="M44.539 41.085c0 13.215-6.922 33.083-6.922 33.083S54.285 51.43 54.285 37.621c0-9.168-7.379-16.668-16.668-16.668-9.168 0 6.922 10.964 6.922 20.132zm-21.086-3.351c0-7.855 6.43-14.285 14.285-14.285 7.856 0 14.285 6.43 14.285 14.285-.117 10.598-10.953 27.383-14.285 32.383C34.406 65 23.453 47.379 23.453 37.734z" fill="#EF4E42"/><circle stroke="#EF4E42" fill="#FFF" cx="40" cy="38" r="5"/><path d="M36.566 71.234l11.392-6.203-16.62-19.506 19.58 17.895 9.97-5.396L31 45l5.566 26.234zM51.519 75v-9.388l-5.622 3.318L51.519 75z" stroke="#EF4E42" fill="#FFF"/></g></svg>