<svg style="background-color:#fafafa" height="678" viewBox="0 0 1200 678" xmlns="http://www.w3.org/2000/svg"><title>Why-Tixsel?</title><g fill="none" fill-rule="evenodd"><path fill="#FAFAFA" d="M0 0h1200v678H0z"/><g transform="translate(852.349 160.368)"><ellipse stroke="#A605ED" stroke-width="2" cx="140.647" cy="60.745" rx="60.646" ry="60.745"/><text transform="translate(37.691 164.372)" font-size="24" fill="#A605ED"><tspan x="47.288" y="24">Low Prices</tspan></text><g font-size="16" fill="#282F44"><text transform="translate(0 212.152)"><tspan x="19.11" y="16">Our booking algorithms deliver the</tspan> <tspan x="1.726" y="38">lowest priced hotel and ticket packages </tspan> <tspan x="23.758" y="60">that meet your budget and needs</tspan></text><text transform="translate(0 212.152)"><tspan x="253.423" y="58.82">.</tspan></text></g><g fill="#A605ED"><path d="M140.117 59.554c-7.414 0-13.525 6.014-13.525 13.41 0 7.395 6.03 13.41 13.525 13.41s13.524-6.015 13.524-13.41c0-7.4-6.025-13.41-13.524-13.41zm0 25.195c-6.519 0-11.895-5.283-11.895-11.785s5.296-11.785 11.895-11.785c6.518 0 11.895 5.283 11.895 11.785s-5.296 11.785-11.895 11.785z"/><path d="M139.468 69.387h3.505c.488 0 .815-.326.815-.813 0-.486-.327-.813-.815-.813h-1.714v-1.705c0-.488-.327-.813-.815-.813-.488 0-.815.325-.815.813v1.705h-.16c-1.63 0-3.014 1.38-3.014 3.005 0 1.626 1.384 3.007 3.013 3.007h1.307c.733 0 1.383.65 1.383 1.379 0 .733-.653 1.38-1.383 1.38h-3.506c-.487 0-.814.326-.814.813 0 .487.327.813.814.813h2.36v1.706c0 .486.327.813.815.813.488 0 .815-.327.815-.813v-1.787c1.468-.245 2.524-1.464 2.524-2.925 0-1.625-1.383-3.005-3.012-3.005h-1.307c-.735 0-1.384-.652-1.384-1.38 0-.733.654-1.38 1.388-1.38z"/><path d="M160.326 62.639c-.247-.407-.408-.733-.654-1.14-2.69-4.55-6.192-9.913-10.346-16.008-.654-.893-1.469-1.706-2.283-2.439 1.468-2.032 3.746-5.202 5.135-7.069.975-1.38.975-3.17 0-4.47-.895-1.139-2.037-1.707-2.852-2.032l.488-1.3c.246-.813-.08-1.626-.815-2.032-7.66-4.144-15.074-1.058-17.11-.08-.815.406-1.142 1.3-.976 2.112l.16.568.081.326c-3.097 1.464-4.562 3.251-5.216 4.224-.407.653-.326 1.38.162 1.952 1.06 1.38 4.32 5.528 6.357 8.127-.653.567-1.303 1.3-1.79 2.032-4.075 5.85-7.495 11.299-10.105 16.01-.246.486-.488.893-.815 1.38-3.912 6.989-3.827 15.361.247 22.27 4.074 6.908 11.326 11.134 19.474 11.134h1.303c8.148-.08 15.48-4.31 19.555-11.379 4.074-6.824 3.993-15.198 0-22.186zm-32.919-28.281v-.081c.407-.652 1.55-2.193 4.235-3.496l.327 1.139c.08.325.407.566.815.566h.246c.408-.16.653-.566.568-.973l-.407-1.3-.653-2.277c0-.08 0-.161.08-.246 1.876-.973 8.636-3.738 15.642 0v.08l-.483 1.305-1.222 3.17c-.161.406.08.894.488 1.058.08 0 .161.08.246.08a.785.785 0 0 0 .735-.566l.652-1.787a6.3 6.3 0 0 1 2.118 1.545c.57.653.57 1.706 0 2.439a1005.016 1005.016 0 0 0-5.215 7.154c-1.71-.974-3.666-1.545-5.703-1.545-2.2 0-4.321.651-6.193 1.87-1.875-2.531-5.134-6.756-6.276-8.135zm31.53 49.9c-3.747 6.583-10.51 10.485-18.17 10.565h-1.303c-7.495 0-14.259-3.902-18.007-10.32-3.827-6.502-3.908-14.223-.241-20.725.245-.487.488-.893.815-1.38 2.69-4.716 6.03-9.999 10.023-15.849 1.791-2.684 4.728-4.145 7.987-4.145 3.259 0 6.11 1.546 7.986 4.145 4.155 6.015 7.58 11.298 10.266 15.85.246.324.408.73.653 1.057 3.744 6.498 3.744 14.3-.009 20.801z"/></g></g><g transform="translate(464.34 -171.368)"><ellipse stroke="#A605ED" stroke-width="2" cx="135.647" cy="392.745" rx="60.646" ry="60.745"/><path d="M414.66.757h7.5" fill="#000"/><path d="M414.66.757h7.5" stroke="#FFF" stroke-width=".75"/><path d="M274.41 24.007h12.75" fill="#000"/><path d="M274.41 24.007h12.75" stroke="#FFF" stroke-width=".75"/><text transform="translate(4.826 496.372)" font-size="24" fill="#A605ED"><tspan x="48.716" y="24">1000+ of hotels</tspan></text><path d="M145.672 358a13.567 13.567 0 0 0-6.43 1.818c-6.478 3.733-8.703 12.024-4.96 18.488 3.466 5.992 10.856 8.353 17.075 5.697l10.544 19.76c.207.365.73.509 1.095.298l2.768-1.594a.827.827 0 0 0 .273-1.095l-11.887-19.008c5.418-4.045 7.079-11.597 3.614-17.592a13.544 13.544 0 0 0-12.088-6.767l-.004-.005zm.05 1.594a11.93 11.93 0 0 1 10.668 5.97c3.308 5.722 1.345 13.02-4.386 16.323-5.73 3.304-13.016 1.34-16.324-4.381a11.896 11.896 0 0 1 4.362-16.299 12.03 12.03 0 0 1 5.684-1.618l-.004.005zm-41.672 2.414c-.042 22.53-.05 45.613-.05 65.297h59.02c.089-7.751.05-15.713.05-22.398a1.63 1.63 0 0 1-1.593-.373v21.177h-23.925v-42.629c-.556-.402-1.1-.834-1.593-1.32v43.95h-30.307v-62.115h28.44c.369-.556.772-1.087 1.22-1.593h-31.254l-.008.004zm6.382 5.572v6.37h1.593v-6.37h-1.593zm6.38 0v6.37h1.594v-6.37h-1.593zm6.383 0v6.37h1.593v-6.37h-1.593zm6.382 0v6.37h1.593v-6.37h-1.593zm-19.14 9.557v6.369h1.593v-6.37h-1.594zm6.38 0v6.369h1.593v-6.37h-1.593zm6.382 0v6.369h1.593v-6.37H123.2zm6.382 0v6.369h1.593v-6.37h-1.593zm27.092 3.983c-.026-.008-1.15 1.244-1.37 1.593h6.183v9.879l1.593 2.54V381.12h-6.406zm7.601 20.38l-1.344.773c-3.225-6.395-7.013-12.635-10.12-19.012 3.817 5.966 7.663 12.173 11.464 18.24zm-53.838-14.807v6.368h1.594v-6.368h-1.594zm6.381 0v6.368h1.593v-6.368h-1.593zm6.382 0v6.368h1.593v-6.368H123.2zm6.382 0v6.368h1.593v-6.368h-1.593zm12.76 0v6.368h1.593v-6.368h-1.593zm6.382 0v6.368h1.593v-6.368h-1.593zm-38.284 9.555v6.37h1.594v-6.37h-1.594zm6.382 0v6.37h1.594v-6.37h-1.594zm6.382 0v6.37h1.594v-6.37h-1.594zm6.382 0v6.37h1.594v-6.37h-1.594zm12.76 0v6.37h1.593v-6.37h-1.593zm6.381 0v6.37h1.593v-6.37h-1.593zm6.382 0v6.37h1.593v-6.37h-1.593zm-44.664 9.556v6.369h1.593v-6.37h-1.593zm6.382 0v6.369h1.593v-6.37h-1.593zm6.382 0v6.369h1.593v-6.37h-1.593zm6.382 0v6.369h1.593v-6.37h-1.593zm12.76 0v6.369h1.593v-6.37h-1.594zm6.38 0v6.369h1.594v-6.37h-1.594zm6.382 0v6.369h1.594v-6.37h-1.594zm-44.664 9.555v6.37h1.593v-6.37h-1.593zm6.382 0v6.37h1.593v-6.37h-1.593zm6.382 0v6.37h1.593v-6.37h-1.593zm6.382 0v6.37h1.593v-6.37h-1.593zm12.758 0v6.37h1.594v-6.37h-1.594zm6.382 0v6.37h1.594v-6.37h-1.594zm6.382 0v6.37h1.594v-6.37h-1.594z" fill="#A605ED"/><text transform="translate(0 543.155)" font-size="16" fill="#282F44"><tspan x="1.998" y="16.997">With over 30,000 hotels in our network, </tspan> <tspan x="13.254" y="38.997">you can create a travel package that </tspan> <tspan x="45.614" y="60.997">meets any and every need.</tspan></text></g><g transform="translate(49.356 160.368)"><ellipse stroke="#A605ED" stroke-width="2" cx="138.21" cy="60.747" rx="60.646" ry="60.745"/><text transform="translate(70.789 164.372)" font-size="24" fill="#A605ED"><tspan x=".605" y="24">500+ Events</tspan></text><text transform="translate(0 212.152)" font-size="16" fill="#282F44"><tspan x="34.025" y="16">Search for over 500 of the top </tspan> <tspan x="12.433" y="38">events across the globe. Be it music, </tspan> <tspan x="14.937" y="60">sports, or entertainment, we have it.</tspan></text><g fill="#A605ED"><path d="M136.126 59.15H109.08c-.26 0-.429.148-.429.373 0 .226.17.373.43.373h27.045c.259 0 .43-.147.43-.373 0-.225-.176-.374-.43-.374zm-27.046 5.527h19.662c.26 0 .43-.147.43-.373 0-.225-.17-.374-.43-.374H109.08c-.26 0-.429.149-.429.374 0 .226.17.373.43.373zm23.866 3.961H109.08c-.26 0-.429.147-.429.373 0 .225.17.373.43.373h23.87c.26 0 .428-.148.428-.373 0-.226-.174-.373-.433-.373zm38.636-17.478c-2.146 0-3.864-1.494-3.864-3.36 0-.448-.344-.748-.858-.748h-56.153c-.514 0-.859.3-.859.747s.345.747.859.747h55.465c.343 2.093 2.231 3.734 4.636 4.034v16.804c0 .448.345.747.859.747.515 0 .858-.3.858-.747V51.907c-.084-.447-.429-.747-.943-.747z"/><path d="M175.101 48.472c-2.146 0-3.864-1.493-3.864-3.36 0-.448-.343-.747-.858-.747h-56.147c-.515 0-.859.3-.859.746 0 .448.344.747.859.747h55.463c.345 2.093 2.232 3.735 4.638 4.034v16.805c0 .447.343.747.859.747.514 0 .858-.3.858-.747V49.219a.972.972 0 0 0-.949-.747z"/><path d="M167.803 54.52c-2.146 0-3.864-1.493-3.864-3.36 0-.447-.343-.747-.858-.747h-56.238c-.514 0-.858.3-.858.747 0 1.867-1.717 3.36-3.864 3.36-.514 0-.858.3-.858.748v17.477c0 .447.344.747.858.747 2.147 0 3.864 1.494 3.864 3.361 0 .447.344.747.858.747h56.238c.515 0 .858-.3.858-.747 0-1.867 1.718-3.36 3.864-3.36.515 0 .859-.3.859-.748V55.268c0-.447-.43-.747-.859-.747zm-.858 17.552c-2.406.3-4.293 1.941-4.637 4.034h-18.03v-.82c0-.3-.26-.6-.69-.6-.429 0-.687.226-.687.6v.82h-35.284c-.344-2.093-2.23-3.734-4.637-4.034V55.941c2.406-.3 4.293-1.94 4.637-4.034h35.287v.894c0 .3.26.6.69.6.429 0 .688-.226.688-.6v-.894h18.03c.344 2.093 2.232 3.734 4.637 4.034v16.131h-.004z"/><path d="M143.593 70.878c-.344 0-.689.225-.689.599v.747c0 .3.26.599.69.599.429 0 .688-.226.688-.6v-.746c-.09-.378-.344-.599-.689-.599zm0-3.886c-.344 0-.689.226-.689.599v.747c0 .3.26.6.69.6.429 0 .688-.227.688-.6v-.747c-.09-.373-.344-.6-.689-.6zm0-7.764c-.344 0-.689.225-.689.599v.746c0 .3.26.6.69.6.429 0 .688-.226.688-.6v-.746c-.09-.378-.344-.599-.689-.599zm0 3.882c-.344 0-.689.226-.689.6v.746c0 .299.26.599.69.599.429 0 .688-.225.688-.599v-.747c-.09-.373-.344-.6-.689-.6zm0-7.769c-.344 0-.689.227-.689.6v.747c0 .3.26.598.69.598.429 0 .688-.225.688-.598v-.747c-.09-.373-.344-.6-.689-.6zm12.02 2.167c-4.292 0-7.812 3.062-7.812 6.796 0 3.734 3.52 6.795 7.812 6.795 4.293 0 7.812-3.06 7.812-6.795 0-3.808-3.519-6.796-7.812-6.796zm0 12.324c-3.519 0-6.439-2.54-6.439-5.602 0-3.061 2.92-5.601 6.44-5.601 3.519 0 6.439 2.54 6.439 5.601-.085 3.135-2.92 5.602-6.44 5.602z"/><path d="M156.212 64.004v-3.286c0-.3-.343-.6-.688-.6-.344 0-.689.3-.689.6v3.734l1.977 1.719c.17.148.345.148.514.148.17 0 .345-.074.514-.148a.53.53 0 0 0 0-.82l-1.628-1.347z"/></g></g><text transform="translate(438 80)" letter-spacing="1" font-size="38" fill="#0A2463"><tspan x="21.85" y="26">Why use Tixsel?</tspan></text></g></svg>