<svg width="1197" height="474" viewBox="0 0 1197 474" xmlns="http://www.w3.org/2000/svg"><title>Why Tixsel?</title><g fill="none" fill-rule="evenodd"><path fill="#F8F8F8" d="M-3 0h1200v474H-3z"/><g transform="translate(771.724 147)"><ellipse stroke="#A605ED" stroke-width="2" cx="156.74" cy="61" rx="60.899" ry="61"/><text font-family="HelveticaNeue, Helvetica Neue" font-size="28" letter-spacing=".431" fill="#A605ED"><tspan x="85.646" y="176">Low Price</tspan> <tspan x="213.927" y="176" letter-spacing=".464">s</tspan></text><text font-family="Gotham-Book, Gotham" font-size="16" font-weight="300" fill="#3F4051"><tspan x="17.745" y="220">Our booking algorithms deliver the </tspan> <tspan x="8.169" y="240">lowest priced hotel + ticket packages </tspan> <tspan x="21.233" y="260">that meet your budget and needs.</tspan></text><g fill="#A605ED"><path d="M157.309 59.703c-7.445 0-13.581 6.04-13.581 13.467 0 7.426 6.056 13.467 13.58 13.467 7.527 0 13.581-6.041 13.581-13.467 0-7.432-6.05-13.467-13.58-13.467zm0 25.301c-6.546 0-11.945-5.305-11.945-11.834 0-6.53 5.318-11.835 11.945-11.835 6.545 0 11.944 5.305 11.944 11.835 0 6.53-5.318 11.834-11.944 11.834z"/><path d="M156.657 69.578h3.52c.49 0 .818-.328.818-.817 0-.488-.329-.816-.818-.816h-1.722v-1.713c0-.49-.328-.816-.818-.816-.49 0-.818.327-.818.816v1.713h-.162c-1.636 0-3.026 1.386-3.026 3.018s1.39 3.019 3.026 3.019h1.313c.736 0 1.388.654 1.388 1.385 0 .736-.655 1.386-1.388 1.386h-3.52c-.49 0-.819.327-.819.817 0 .488.329.816.818.816h2.37v1.713c0 .488.328.816.818.816.49 0 .818-.328.818-.816v-1.795c1.475-.246 2.535-1.47 2.535-2.937 0-1.632-1.388-3.018-3.025-3.018h-1.312c-.737 0-1.39-.655-1.39-1.386 0-.736.657-1.385 1.394-1.385z"/><path d="M177.602 62.801c-.248-.408-.41-.736-.657-1.144-2.701-4.57-6.217-9.955-10.389-16.076-.656-.897-1.475-1.713-2.293-2.449 1.475-2.04 3.763-5.224 5.157-7.098.98-1.387.98-3.184 0-4.49-.899-1.143-2.046-1.713-2.864-2.04l.49-1.306c.248-.816-.08-1.632-.818-2.04-7.692-4.161-15.136-1.062-17.182-.08-.818.408-1.146 1.304-.98 2.12l.162.57.08.328c-3.11 1.47-4.58 3.265-5.237 4.242-.409.655-.327 1.386.163 1.96 1.064 1.385 4.337 5.551 6.383 8.162a10.557 10.557 0 0 0-1.798 2.04c-4.091 5.875-7.525 11.346-10.147 16.077-.246.488-.49.897-.818 1.386-3.928 7.018-3.843 15.426.248 22.363 4.09 6.938 11.374 11.181 19.555 11.181h1.308c8.182-.08 15.546-4.328 19.637-11.426 4.09-6.853 4.01-15.262 0-22.28zm-33.056-28.4v-.081c.41-.654 1.556-2.202 4.252-3.51l.329 1.143c.08.326.409.57.818.57h.248c.409-.162.655-.57.57-.978l-.409-1.306-.656-2.286c0-.081 0-.163.081-.247 1.883-.978 8.672-3.754 15.707 0v.08l-.485 1.31-1.228 3.183c-.161.408.081.898.49 1.064.08 0 .163.08.248.08a.788.788 0 0 0 .737-.569l.656-1.795c.572.247 1.39.736 2.126 1.552.572.655.572 1.713 0 2.449-1.389 1.88-3.762 5.144-5.236 7.184-1.718-.978-3.682-1.551-5.728-1.551-2.208 0-4.338.654-6.218 1.878-1.883-2.542-5.155-6.784-6.302-8.17zm31.662 50.11c-3.763 6.61-10.555 10.53-18.247 10.61h-1.308c-7.526 0-14.318-3.92-18.082-10.364-3.843-6.53-3.924-14.283-.242-20.812.247-.489.49-.897.818-1.385 2.701-4.736 6.056-10.042 10.065-15.916 1.799-2.695 4.748-4.162 8.02-4.162 3.273 0 6.137 1.551 8.02 4.162 4.172 6.04 7.61 11.345 10.309 15.916.246.326.409.734.655 1.062 3.76 6.525 3.76 14.359-.008 20.888z"/></g></g><g transform="translate(439.263 147)"><ellipse stroke="#A605ED" stroke-width="2" cx="154.742" cy="61" rx="60.899" ry="61"/><text font-family="HelveticaNeue, Helvetica Neue" font-size="28" letter-spacing=".431" fill="#A605ED"><tspan x="53.743" y="176">1000’s of hotel</tspan> <tspan x="243.829" y="176" letter-spacing=".464">s</tspan></text><path d="M165.582 26.404a13.623 13.623 0 0 0-6.457 1.825c-6.505 3.75-8.738 12.075-4.98 18.567 3.48 6.017 10.9 8.387 17.146 5.72l10.588 19.842c.208.367.733.512 1.1.3l2.78-1.6a.83.83 0 0 0 .274-1.1L174.096 50.87c5.44-4.061 7.108-11.645 3.628-17.666a13.6 13.6 0 0 0-12.137-6.795l-.005-.005zm.05 1.6A11.98 11.98 0 0 1 176.346 34c3.322 5.746 1.35 13.075-4.404 16.391-5.754 3.318-13.07 1.347-16.392-4.4a11.947 11.947 0 0 1 4.38-16.366A12.08 12.08 0 0 1 165.637 28l-.004.004zm-41.845 2.425c-.041 22.625-.05 45.805-.05 65.571h59.266c.089-7.783.05-15.78.05-22.492a1.636 1.636 0 0 1-1.6-.374V94.4H157.43V51.591a13.82 13.82 0 0 1-1.6-1.324V94.4h-30.433V32.025h28.558a14.43 14.43 0 0 1 1.225-1.6h-31.383l-.009.004zm6.409 5.596v6.396h1.6v-6.396h-1.6zm6.407 0v6.396h1.6v-6.396h-1.6zm6.409 0v6.396h1.6v-6.396h-1.6zm6.408 0v6.396h1.6v-6.396h-1.6zM130.2 45.62v6.396h1.6V45.62h-1.6zm6.408 0v6.396h1.6V45.62h-1.6zm6.408 0v6.396h1.6V45.62h-1.6zm6.409 0v6.396h1.6V45.62h-1.6zm27.204 4c-.026-.008-1.154 1.25-1.375 1.6h6.208v9.92l1.6 2.55V49.62h-6.433zm7.633 20.466l-1.35.776c-3.238-6.421-7.042-12.688-10.163-19.092 3.834 5.991 7.696 12.225 11.513 18.316zM130.2 55.217v6.396h1.6v-6.396h-1.6zm6.408 0v6.396h1.6v-6.396h-1.6zm6.408 0v6.396h1.6v-6.396h-1.6zm6.409 0v6.396h1.6v-6.396h-1.6zm12.812 0v6.396h1.6v-6.396h-1.6zm6.409 0v6.396h1.6v-6.396h-1.6zm-38.443 9.596v6.396h1.6v-6.396h-1.6zm6.409 0v6.396h1.6v-6.396h-1.6zm6.408 0v6.396h1.6v-6.396h-1.6zm6.409 0v6.396h1.6v-6.396h-1.6zm12.813 0v6.396h1.6v-6.396h-1.6zm6.407 0v6.396h1.6v-6.396h-1.6zm6.409 0v6.396h1.6v-6.396h-1.6zm-44.85 9.596v6.395h1.6V74.41h-1.6zm6.408 0v6.395h1.6V74.41h-1.6zm6.409 0v6.395h1.6V74.41h-1.6zm6.408 0v6.395h1.6V74.41h-1.6zm12.813 0v6.395h1.6V74.41h-1.6zm6.407 0v6.395h1.6V74.41h-1.6zm6.409 0v6.395h1.6V74.41h-1.6zm-44.85 9.595V90.4h1.6v-6.396h-1.6zm6.408 0V90.4h1.6v-6.396h-1.6zm6.409 0V90.4h1.6v-6.396h-1.6zm6.408 0V90.4h1.6v-6.396h-1.6zm12.812 0V90.4h1.6v-6.396h-1.6zm6.409 0V90.4h1.6v-6.396h-1.6zm6.408 0V90.4h1.6v-6.396h-1.6z" fill="#A605ED"/><text font-family="HelveticaNeue, Helvetica Neue" font-size="16" fill="#3F4051"><tspan x="15.617" y="218">With over 30,000 hotels in our network, </tspan> <tspan x="25.553" y="238">you can create a travel package that </tspan> <tspan x="59.321" y="258">meets any and every need.</tspan></text></g><g transform="translate(97.815 147)"><ellipse stroke="#A605ED" stroke-width="2" cx="155.74" cy="61" rx="60.899" ry="61"/><text font-family="HelveticaNeue, Helvetica Neue" font-size="28" letter-spacing=".431" fill="#A605ED"><tspan x="75.722" y="176">500+ Event</tspan> <tspan x="221.85" y="176" letter-spacing=".464">s</tspan></text><text font-family="HelveticaNeue, Helvetica Neue" font-size="16" letter-spacing="-.343" fill="#3F4051"><tspan x="29.224" y="218">Search for over 500 of the top events </tspan> <tspan x="18.225" y="238">across the globe. Be it music, sports, or </tspan> <tspan x="67.938" y="258">entertainment, we have it.</tspan></text><g fill="#A605ED"><path d="M152.65 59.398h-27.158c-.26 0-.43.149-.43.375 0 .227.17.375.43.375h27.158c.26 0 .432-.148.432-.375 0-.226-.176-.375-.432-.375zm-27.158 5.551h19.744c.26 0 .431-.148.431-.375 0-.226-.17-.375-.431-.375h-19.744c-.26 0-.43.149-.43.375 0 .227.17.375.43.375zm23.965 3.977h-23.965c-.26 0-.43.148-.43.375 0 .226.17.375.43.375h23.97c.26 0 .43-.149.43-.375 0-.227-.174-.375-.435-.375zm38.797-17.551c-2.155 0-3.88-1.5-3.88-3.375 0-.449-.346-.75-.862-.75h-56.386c-.516 0-.862.301-.862.75s.346.75.862.75h55.695c.345 2.102 2.24 3.75 4.656 4.051v16.875c0 .449.346.75.862.75.518 0 .862-.301.862-.75V52.125c-.085-.449-.43-.75-.947-.75z"/><path d="M191.788 48.676c-2.156 0-3.88-1.5-3.88-3.375 0-.449-.345-.75-.862-.75h-56.38c-.518 0-.863.301-.863.75s.345.75.862.75h55.695c.346 2.101 2.24 3.75 4.657 4.051v16.875c0 .449.344.75.862.75.516 0 .862-.301.862-.75V49.426a.976.976 0 0 0-.953-.75z"/><path d="M184.46 54.75c-2.156 0-3.88-1.5-3.88-3.375 0-.449-.345-.75-.862-.75h-56.472c-.516 0-.862.301-.862.75 0 1.875-1.724 3.375-3.88 3.375-.516 0-.862.301-.862.75v17.551c0 .449.346.75.862.75 2.156 0 3.88 1.5 3.88 3.375 0 .449.346.75.862.75h56.472c.517 0 .862-.301.862-.75 0-1.875 1.724-3.375 3.88-3.375.517 0 .862-.301.862-.75V55.5c0-.449-.431-.75-.862-.75zm-.863 17.625c-2.415.301-4.31 1.949-4.655 4.051h-18.106v-.824c0-.301-.26-.602-.692-.602-.43 0-.69.227-.69.602v.824h-35.43c-.347-2.102-2.241-3.75-4.657-4.051V56.176c2.416-.301 4.31-1.949 4.656-4.051h35.434v.898c0 .301.26.602.692.602.431 0 .692-.227.692-.602v-.898h18.105c.345 2.102 2.24 3.75 4.656 4.051v16.199h-.005z"/><path d="M160.149 71.176c-.346 0-.692.226-.692.601v.75c0 .301.26.602.692.602.431 0 .692-.227.692-.602v-.75c-.09-.379-.346-.601-.692-.601zm0-3.903c-.346 0-.692.227-.692.602v.75c0 .301.26.602.692.602.431 0 .692-.227.692-.602v-.75c-.09-.375-.346-.602-.692-.602zm0-7.796c-.346 0-.692.226-.692.601v.75c0 .301.26.602.692.602.431 0 .692-.227.692-.602v-.75c-.09-.379-.346-.601-.692-.601zm0 3.898c-.346 0-.692.227-.692.602v.75c0 .3.26.601.692.601.431 0 .692-.226.692-.601v-.75c-.09-.375-.346-.602-.692-.602zm0-7.801c-.346 0-.692.227-.692.602v.75c0 .301.26.601.692.601.431 0 .692-.226.692-.601v-.75c-.09-.375-.346-.602-.692-.602zm12.071 2.176c-4.312 0-7.845 3.074-7.845 6.824s3.533 6.824 7.844 6.824 7.845-3.074 7.845-6.824c0-3.824-3.534-6.824-7.845-6.824zm0 12.375c-3.535 0-6.467-2.551-6.467-5.625s2.932-5.625 6.466-5.625c3.534 0 6.466 2.551 6.466 5.625-.085 3.148-2.932 5.625-6.466 5.625z"/><path d="M172.82 64.273v-3.3c0-.301-.344-.602-.69-.602s-.693.301-.693.602v3.75l1.986 1.726c.17.149.346.149.516.149.171 0 .346-.075.516-.149a.532.532 0 0 0 0-.824l-1.635-1.352z"/></g></g><text font-family="HelveticaNeue, Helvetica Neue" font-size="32" letter-spacing="1.18" fill="#000" transform="translate(-3)"><tspan x="473.861" y="79">Why use Tixsel</tspan> <tspan x="704.909" y="79">?</tspan></text></g></svg>